<svg id="Layer_1" data-name="Layer 1" xmlns="http://www.w3.org/2000/svg" viewBox="0 0 462.36 462.8"><defs><style>.cls-1{fill:#25aae2;}.cls-2{fill:#faa61b;}.cls-3{fill:#ed2f31;}.cls-4{fill:#6b2c8a;}.cls-5{fill:#00a650;}.cls-6{fill:#fff;}.cls-7{fill:#231f20;}</style></defs><path class="cls-1" d="M367.31,43.89A231.55,231.55,0,0,0,99,41.74l54.48,74.92a138.94,138.94,0,0,1,159.07,2Z"/><path class="cls-2" d="M94.8,44A231.57,231.57,0,0,0,9.67,296.87l88.21-28.33a138.92,138.92,0,0,1,51.39-149.62Z"/><path class="cls-3" d="M146.68,341.16a138.3,138.3,0,0,1-47.95-67.7L10.54,301.79A231.56,231.56,0,0,0,225,462.12l.17-92.65A138.35,138.35,0,0,1,146.68,341.16Z"/><path class="cls-4" d="M360.43,278.72a138.92,138.92,0,0,1-130.14,91.45l-.17,92.63A231.57,231.57,0,0,0,448.28,308.08Z"/><path class="cls-5" d="M363.64,191.89a138.33,138.33,0,0,1-.44,82.53l87.85,29.37a231.57,231.57,0,0,0-80.59-256l-54.72,74.74A138.21,138.21,0,0,1,363.64,191.89Z"/><path class="cls-6" d="M398.54,133.3l2.8-4.09-4.86.94Zm5.17-7.3,1.57,2.39-8.59,12.89-1.79-2.72,2-2.83-3.28-5-3.36.66-1.74-2.65Z"/><path class="cls-6" d="M409.07,140.33l-7.52,4,1.13,2.12a4,4,0,0,0,5.73,1.77l0,0a4.06,4.06,0,0,0,1.75-5.77Zm1-4.07,2.6,4.86c2.09,3.93.85,8.07-2.66,9.95l0,0c-3.51,1.87-7.68.62-9.78-3.3l-2.6-4.87Z"/><path class="cls-6" d="M415.57,164.26h0a4.3,4.3,0,0,0,2.47-5.66,4.22,4.22,0,0,0-5.69-2.24l0,0a4.29,4.29,0,0,0-2.47,5.66,4.23,4.23,0,0,0,5.69,2.23m-4.5-10.88,0,0a7.52,7.52,0,0,1,5.79,13.88h0a7.52,7.52,0,0,1-5.78-13.87"/><path class="cls-6" d="M419.38,175.57a2.18,2.18,0,0,0,2.77,1.72h0c1.33-.41,1.76-1.55,1.3-3l-.7-2.3-4.13,1.27Zm5.18-7.43,1.7,5.53c1,3.22-.33,5.76-3.09,6.61h0c-3.13,1-5.5-1-6.43-4L416,174,412,175.26l-.91-3Z"/><polygon class="cls-6" points="426.49 185.82 425.58 181.61 428.39 181.01 430.85 192.47 428.04 193.07 427.14 188.86 416.12 191.23 415.46 188.19 426.49 185.82"/><rect class="cls-6" x="417.45" y="196.69" width="14.14" height="3.11" transform="matrix(0.99, -0.15, 0.15, 0.99, -24.45, 64.28)"/><path class="cls-6" d="M426.08,214.69h0a4.3,4.3,0,0,0,4.15-4.58,4.24,4.24,0,0,0-4.69-3.93h0a4.3,4.3,0,0,0-4.14,4.58,4.22,4.22,0,0,0,4.68,3.93m-.8-11.75h0a7.32,7.32,0,0,1,7.81,7,7.24,7.24,0,0,1-6.75,8h0a7.52,7.52,0,0,1-1.06-15"/><polygon class="cls-6" points="433.38 221.38 433.27 224.25 424.31 230.53 433.01 230.87 432.89 233.94 418.77 233.39 418.87 230.74 428.12 224.25 419.13 223.9 419.25 220.83 433.38 221.38"/><path class="cls-6" d="M370,134.11l0,0a7.25,7.25,0,0,1,10.17,2.26,7.78,7.78,0,0,1,1.39,5.72l-3.05-.37a5.19,5.19,0,0,0-.8-3.88,4.25,4.25,0,0,0-5.91-1l0,0a4.23,4.23,0,0,0-1.45,6,5,5,0,0,0,2.31,2l1.7-1.09-1.71-2.63,2.26-1.46,3.34,5.16-5.16,3.33a9.16,9.16,0,0,1-5.17-3.86A7.07,7.07,0,0,1,370,134.11"/><path class="cls-6" d="M378,148.56l7.15-3.78,1.45,2.76-7.07,3.74c-2,1.07-2.56,2.65-1.67,4.33s2.44,2.16,4.43,1.11l7.16-3.79,1.46,2.75-7.06,3.73c-3.79,2-6.77.86-8.55-2.5s-1-6.4,2.7-8.35"/><rect class="cls-6" x="379.65" y="162.1" width="14.15" height="3.11" transform="translate(-33.11 172.36) rotate(-24.12)"/><path class="cls-6" d="M394,170l-8,2.93.83,2.26a4,4,0,0,0,5.43,2.55h0a4.07,4.07,0,0,0,2.54-5.47Zm1.57-3.89,1.89,5.18c1.53,4.17-.27,8.1-4,9.47l0,0c-3.73,1.37-7.69-.45-9.22-4.62L382.3,171Z"/><path class="cls-6" d="M395,190.94l4-3L394,187.3Zm7.22-5.29.73,2.78-12.24,9.49-.82-3.15,2.73-2.06-1.52-5.78-3.4-.44-.8-3.07Z"/><polygon class="cls-6" points="405.02 197.59 405.46 200.42 397.87 208.31 406.47 206.97 406.94 210.01 392.97 212.18 392.56 209.56 400.39 201.41 391.51 202.79 391.04 199.76 405.02 197.59"/><path class="cls-6" d="M400.24,214.22h0a7.18,7.18,0,0,1,7.69,7,7.28,7.28,0,0,1-1.89,5.68L403.7,225a5.19,5.19,0,0,0,1.4-3.7,4.18,4.18,0,0,0-4.61-3.86h0a4.2,4.2,0,0,0-4.22,4.33,5.1,5.1,0,0,0,1.85,3.63l-1.9,2.08a7.21,7.21,0,0,1-2.82-5.66,7.13,7.13,0,0,1,6.88-7.62"/><polygon class="cls-6" points="407.97 230.37 407.55 241.03 404.79 240.92 405.08 233.35 402.22 233.24 401.95 239.9 399.19 239.79 399.45 233.13 396.48 233.01 396.18 240.69 393.41 240.57 393.84 229.82 407.97 230.37"/><polygon class="cls-6" points="194.43 42.8 197.73 42.16 202.52 47.32 205.03 40.73 208.32 40.09 211.03 53.98 207.99 54.57 206.22 45.5 203.47 52.2 203.4 52.21 198.38 47.1 200.14 56.1 197.14 56.69 194.43 42.8"/><path class="cls-6" d="M224.54,45.57v0a4.29,4.29,0,0,0-4.66-4.05A4.23,4.23,0,0,0,216,46.24v0a4.29,4.29,0,0,0,4.65,4,4.23,4.23,0,0,0,3.84-4.76m-11.73,1v0a7.51,7.51,0,0,1,15-1.36v0a7.52,7.52,0,0,1-15,1.36"/><path class="cls-6" d="M234.13,41,234,49.5l2.41,0a4,4,0,0,0,4.33-4.15v0A4.07,4.07,0,0,0,236.54,41Zm-3.06-2.86,5.52.09c4.44.07,7.46,3.17,7.39,7.15v0c-.06,4-3.18,7-7.63,7l-5.51-.09Z"/><polygon class="cls-6" points="247.87 38.65 258.48 39.84 258.17 42.59 250.64 41.74 250.32 44.59 256.95 45.34 256.64 48.09 250.01 47.35 249.68 50.3 257.31 51.16 257 53.91 246.3 52.71 247.87 38.65"/><polygon class="cls-6" points="262.23 40.46 265.28 41.07 263.06 52.17 269.98 53.55 269.42 56.33 259.45 54.34 262.23 40.46"/><path class="cls-6" d="M40.07,224l-4.59,1.86,4.58,1.9Zm-8.34,3.25v-2.87l14.27-6v3.25l-3.18,1.29,0,6,3.17,1.3v3.18Z"/><path class="cls-6" d="M39.68,210.27a2.2,2.2,0,0,0-1.93-2.64h0c-1.39-.12-2.22.78-2.35,2.33l-.2,2.4,4.31.37Zm-7.59,4.95.5-5.76c.28-3.36,2.45-5.22,5.33-5h0c3.26.28,4.74,3,4.47,6.12L42.22,213l4.23.37-.26,3.1Z"/><path class="cls-6" d="M41.43,196.58a2.19,2.19,0,0,0-1.71-2.78h0c-1.38-.23-2.27.61-2.53,2.14l-.39,2.38L41,199Zm-8,4.34.94-5.71c.55-3.33,2.86-5,5.71-4.54h0c3.23.53,4.49,3.32,4,6.45l-.38,2.33,4.18.7-.51,3.07Z"/><path class="cls-6" d="M44.19,182.35c.38-1.47-.19-2.51-1.35-2.81h0c-1.29-.33-2.18.41-2.56,1.87l-.76,3,3.93,1ZM36,186.72l1.59-6.26A5.69,5.69,0,0,1,40,176.81a4.49,4.49,0,0,1,3.44-.37h0a4.4,4.4,0,0,1,3.5,4l5.75-2.1-.9,3.53-5.14,1.81-.6,2.37,4.38,1.12-.77,3Z"/><path class="cls-6" d="M50.52,166.76l-5,.21,3.67,3.32Zm-8.94.25,1-2.7L58,163.45l-1.11,3.06-3.42.14-2,5.62L54,174.56l-1.07,3Z"/><rect class="cls-6" x="51.61" y="150.22" width="3.11" height="14.14" transform="translate(-112.13 141.61) rotate(-65.9)"/><path class="cls-6" d="M59.34,155.62,58.25,153A6.55,6.55,0,0,0,61.74,150c.59-1.13.5-2-.23-2.43l0,0c-.7-.36-1.28-.12-2.92,1.69-2,2.18-3.52,3.44-6,2.13l0,0c-2.27-1.2-2.82-3.81-1.47-6.37a8.22,8.22,0,0,1,4-3.81l1.32,2.53a6.62,6.62,0,0,0-2.95,2.6c-.55,1-.36,1.86.25,2.18l0,0c.82.43,1.38,0,3.07-1.83,2-2.19,3.66-3.14,5.84-2l0,0c2.48,1.3,2.88,3.93,1.46,6.63a9,9,0,0,1-4.8,4.26"/><path class="cls-6" d="M66.89,134.81,62,133.88,64.84,138ZM58.13,133l1.56-2.41,15.25,2.7L73.16,136l-3.36-.65-3.27,5,2,2.81-1.73,2.66Z"/><polygon class="cls-6" points="65.05 123.08 66.98 120.64 75.86 127.66 80.23 122.12 82.45 123.88 76.15 131.85 65.05 123.08"/><polygon class="cls-6" points="55.6 226.04 55.82 222.69 62.04 219.38 56.31 215.27 56.53 211.93 70.65 212.86 70.44 215.95 61.23 215.34 67 219.71 66.99 219.79 60.76 223.32 69.92 223.93 69.72 226.98 55.6 226.04"/><polygon class="cls-6" points="57.11 207.6 58.76 197.06 61.49 197.49 60.32 204.97 63.16 205.41 64.19 198.83 66.92 199.26 65.89 205.84 68.82 206.3 70.01 198.72 72.75 199.15 71.08 209.78 57.11 207.6"/><polygon class="cls-6" points="63.07 190.87 62.06 195.06 59.27 194.39 62.01 182.99 64.8 183.66 63.79 187.84 74.76 190.47 74.03 193.5 63.07 190.87"/><polygon class="cls-6" points="62.92 179.77 63.91 176.82 69.22 178.6 71.05 173.16 65.74 171.38 66.73 168.43 80.14 172.94 79.15 175.89 73.77 174.08 71.94 179.52 77.32 181.33 76.33 184.28 62.92 179.77"/><path class="cls-6" d="M79.47,157h0a4.29,4.29,0,0,0-5.82,2,4.22,4.22,0,0,0,2.23,5.69l0,0a4.3,4.3,0,0,0,5.83-2,4.24,4.24,0,0,0-2.24-5.7m-4.91,10.72,0,0A7.52,7.52,0,0,1,80.75,154l0,0a7.52,7.52,0,0,1-6.23,13.69"/><path class="cls-6" d="M80.25,146.4l7.33,4.36,1.23-2.06a4,4,0,0,0-1.45-5.83l0,0a4.08,4.08,0,0,0-5.85,1.48Zm-4,1.24,2.82-4.74c2.28-3.82,6.47-4.9,9.89-2.86l0,0c3.42,2,4.5,6.26,2.23,10.08l-2.82,4.73Z"/><path class="cls-6" d="M306.71,417.25l-3.47-1.69a2.14,2.14,0,0,0-.62,2.19l0,0a1.76,1.76,0,0,0,2.42.91,3.36,3.36,0,0,0,1.65-1.45m-2.33-7.08v0a1.25,1.25,0,0,0-1.7-.79,1.33,1.33,0,0,0-.82,1.81l0,0a2.55,2.55,0,0,0,1.36,1.38c1-.85,1.45-1.56,1.15-2.4m4.56,8.18a6.37,6.37,0,0,1-3.38,2.87c-2.55.9-5,.1-5.84-2.27v0a4.09,4.09,0,0,1,1.3-4.57,4.78,4.78,0,0,1-1.88-2.34v0c-.65-1.83.23-4,2.8-4.93,2.27-.8,4.28.16,4.94,2v0c.64,1.79-.14,3.24-1.57,4.47l2.4,1.15c.2-.84.36-1.78.49-2.75l2.57.42a25.28,25.28,0,0,1-.76,3.44l2.66,1.27L311,419.37Z"/><polygon class="cls-6" points="319.53 402.94 315.71 404.92 314.39 402.38 324.79 396.98 326.11 399.52 322.29 401.5 327.48 411.51 324.72 412.94 319.53 402.94"/><path class="cls-6" d="M339.08,396.2l0,0a4.29,4.29,0,0,0-6-1.35,4.22,4.22,0,0,0-1.11,6l0,0a4.29,4.29,0,0,0,6,1.34,4.23,4.23,0,0,0,1.12-6m-9.84,6.49,0,0a7.32,7.32,0,0,1,2.26-10.26,7.25,7.25,0,0,1,10.27,1.94l0,0a7.32,7.32,0,0,1-2.26,10.26,7.25,7.25,0,0,1-10.27-1.94"/><path class="cls-6" d="M352.62,385.36l0,0a4.29,4.29,0,0,0-6.14-.61,4.23,4.23,0,0,0-.37,6.11l0,0a4.3,4.3,0,0,0,6.15.6,4.23,4.23,0,0,0,.37-6.1m-9,7.64,0,0a7.32,7.32,0,0,1,1-10.46,7.24,7.24,0,0,1,10.42.68l0,0A7.52,7.52,0,0,1,343.65,393"/><polygon class="cls-6" points="351.98 376.21 354.13 373.95 362.31 381.77 367.18 376.68 369.23 378.63 362.2 385.98 351.98 376.21"/><path class="cls-6" d="M369,375.76l-.56-2.81a6.49,6.49,0,0,0,4-2.21c.8-1,.89-1.91.25-2.43l0,0c-.61-.5-1.23-.37-3.19,1.08-2.35,1.76-4.12,2.7-6.31.94l0,0c-2-1.61-2-4.28-.2-6.53a8.17,8.17,0,0,1,4.7-3l.81,2.73a6.62,6.62,0,0,0-3.4,2c-.75.93-.72,1.76-.18,2.19l0,0c.72.59,1.34.31,3.36-1.2,2.39-1.77,4.2-2.38,6.12-.83l0,0c2.19,1.76,2.07,4.42.15,6.79a9,9,0,0,1-5.53,3.25"/><path class="cls-6" d="M282.06,397.73l1.18-2.62a6.43,6.43,0,0,0,4.52.52c1.23-.34,1.83-1,1.61-1.83v0c-.21-.76-.79-1-3.23-1-2.94.07-4.92-.19-5.67-2.9v0c-.69-2.47.83-4.66,3.62-5.44a8.22,8.22,0,0,1,5.54.32l-.93,2.7a6.63,6.63,0,0,0-3.91-.36c-1.15.32-1.61,1-1.42,1.68v0c.25.89.91,1,3.44,1,3-.05,4.79.5,5.46,2.88v0c.75,2.71-.89,4.8-3.82,5.62a9,9,0,0,1-6.39-.56"/><polygon class="cls-6" points="297.87 389.17 289.73 383.11 293.13 381.81 298.31 385.91 299.49 379.38 302.79 378.12 300.75 388 302.77 393.27 299.86 394.38 297.87 389.17"/><path class="cls-6" d="M307.89,389l.67-2.79a6.52,6.52,0,0,0,4.55-.32c1.14-.56,1.61-1.36,1.24-2.1v0c-.35-.7-1-.85-3.35-.35-2.88.6-4.88.71-6.12-1.81l0,0c-1.13-2.3,0-4.74,2.56-6a8.2,8.2,0,0,1,5.51-.71l-.41,2.82a6.67,6.67,0,0,0-3.92.37c-1.07.53-1.39,1.29-1.09,1.91l0,0c.41.83,1.09.84,3.56.32,2.9-.6,4.81-.39,5.9,1.83l0,0c1.24,2.52,0,4.88-2.73,6.23a9,9,0,0,1-6.38.62"/><polygon class="cls-6" points="318.55 373.02 314.87 375.25 313.38 372.8 323.39 366.71 324.88 369.17 321.2 371.4 327.06 381.04 324.4 382.65 318.55 373.02"/><polygon class="cls-6" points="324.95 365.63 333.53 359.3 335.17 361.52 329.08 366.02 330.78 368.33 336.14 364.37 337.79 366.6 332.43 370.56 334.19 372.94 340.36 368.38 342.01 370.61 333.35 377.01 324.95 365.63"/><polygon class="cls-6" points="335.36 357.87 337.85 355.61 344.62 357.55 343.36 350.62 345.85 348.37 355.34 358.85 353.05 360.93 346.85 354.08 347.96 361.24 347.9 361.29 340.96 359.5 347.12 366.3 344.86 368.35 335.36 357.87"/><path class="cls-6" d="M356.06,355.14l-.38-2.84a6.47,6.47,0,0,0,4.12-2c.86-.93,1-1.84.39-2.4l0,0c-.58-.53-1.2-.45-3.25.89-2.46,1.61-4.28,2.43-6.35.53l0,0c-1.89-1.73-1.75-4.39.2-6.52a8.19,8.19,0,0,1,4.88-2.66l.63,2.77a6.69,6.69,0,0,0-3.51,1.77c-.81.88-.83,1.71-.32,2.17l0,0c.68.63,1.32.39,3.43-1,2.49-1.61,4.34-2.11,6.16-.44l0,0c2.07,1.89,1.78,4.54-.28,6.78a9,9,0,0,1-5.72,2.9"/><path class="cls-6" d="M58.55,328.06l0,0a7.26,7.26,0,0,1,10.28,2.12,7.41,7.41,0,0,1,1.28,5.92l-3-.4a5.28,5.28,0,0,0-.68-3.93,4.24,4.24,0,0,0-6-1l0,0A4.23,4.23,0,0,0,59,336.71a5.16,5.16,0,0,0,3.47,2.21l-.58,2.78a7.54,7.54,0,0,1-3.29-13.64Z"/><path class="cls-6" d="M73.13,336.8l6.52,8.59-2.23,1.69L72.79,341l-2.31,1.76,4.08,5.36-2.23,1.69-4.07-5.36-2.39,1.81,4.69,6.18-2.23,1.69-6.58-8.66Z"/><path class="cls-6" d="M81.26,347.39l4.26,5a5.71,5.71,0,0,1,1.61,4.1,4.53,4.53,0,0,1-1.68,3.06l0,0a4.45,4.45,0,0,1-5.36.56l-1.6,6-2.39-2.79,1.47-5.3-1.6-1.88-3.48,3-2-2.39Zm-1.14,9.32c1,1.16,2.18,1.3,3.1.51l0,0c1-.88.94-2-.06-3.21l-2-2.37L78,354.29Z"/><path class="cls-6" d="M91,362.67l-3-3.12,2.09-2L98.27,366l-2.08,2-3-3.13L85,372.85l-2.19-2.25Z"/><path class="cls-6" d="M100,367.59l2.29,2.16-9.82,10.39L90.17,378Z"/><path class="cls-6" d="M104.67,372l8.26,7.08-1.86,2.17-5.88-5-2,2.31,5.18,4.44-1.86,2.17-5.18-4.44-3.6,4.2-2.39-2.05Z"/><path class="cls-6" d="M114.83,380.53l2.49,1.92-8.75,11.31-2.48-1.93Z"/><path class="cls-6" d="M115.29,390l0,0a7.26,7.26,0,0,1,10.32-1.88,7.34,7.34,0,0,1,3.4,5l-2.95.77a5.27,5.27,0,0,0-2.11-3.39,4.22,4.22,0,0,0-5.93,1.32l0,0a4.24,4.24,0,0,0,.88,6.05,5.14,5.14,0,0,0,4,.74l.51,2.8a7.33,7.33,0,0,1-6.28-1.21A7.22,7.22,0,0,1,115.29,390Z"/><path class="cls-6" d="M136.28,395l2.53,1.42-1.71,15.55-2.87-1.61.43-3.44-5.26-3-2.71,2.16-2.8-1.57Zm-1.23,8.95.61-5L131.74,402Z"/><path class="cls-6" d="M145.9,403.37l-4-1.83,1.22-2.63,10.74,5-1.21,2.63-3.95-1.82L144,415l-2.86-1.32Z"/><path class="cls-6" d="M156,404.61l2.94,1.13-5.15,13.34L150.85,418Z"/><path class="cls-6" d="M159.18,413.67v0a7.39,7.39,0,0,1,9.4-4.94,7.31,7.31,0,0,1,5.18,9.19v0a7.6,7.6,0,0,1-14.58-4.26ZM170.6,417v0a4.34,4.34,0,0,0-2.88-5.53,4.27,4.27,0,0,0-5.37,3.06l0,0a4.36,4.36,0,0,0,2.89,5.54A4.28,4.28,0,0,0,170.6,417Z"/><path class="cls-6" d="M177.91,411.5l2.86.49,5.11,9.81,1.49-8.67,3.06.52L188,427.74l-2.63-.46-5.28-10.12-1.54,8.95-3.06-.52Z"/><path class="cls-6" d="M91.76,321.56l-2.6-3.49,2.32-1.73,7.09,9.48-2.32,1.73-2.6-3.48-9.12,6.83-1.89-2.52Z"/><path class="cls-6" d="M99.88,327.46l4.21,5a5.67,5.67,0,0,1,1.57,4.12,4.43,4.43,0,0,1-1.71,3l0,0a4.42,4.42,0,0,1-5.36.51l-1.66,6-2.36-2.81L96.06,338l-1.59-1.89L91,339.06l-2-2.4Zm-1.23,9.31c1,1.17,2.17,1.32,3.09.54l0,0c1-.86,1-2,0-3.2l-2-2.39-3.14,2.64Z"/><path class="cls-6" d="M112.68,341.88l2,2.09-6.11,14.39L106.3,356l1.4-3.17-4.19-4.35-3.22,1.29-2.22-2.31Zm-3.76,8.22,2-4.59-4.66,1.85Z"/><path class="cls-6" d="M120.44,349.77l2.3,2.14L113,362.37l-2.3-2.14Z"/><path class="cls-6" d="M125.08,354.15l2.24,1.85-.43,11.05,5.6-6.79,2.39,2-9.09,11-2.06-1.7.44-11.41-5.78,7-2.4-2Z"/><path class="cls-6" d="M137.52,364.08l2.55,1.84-8.35,11.59-2.55-1.83Z"/><path class="cls-6" d="M142.62,367.83l2.47,1.52,1.09,11,4.61-7.49,2.64,1.63-7.49,12.16-2.28-1.4-1.13-11.36-4.76,7.73L135.12,380Z"/><path class="cls-6" d="M152.28,382.08v0a7.34,7.34,0,0,1,9.93-3.5,7.83,7.83,0,0,1,4.25,4.16L163.66,384a5.26,5.26,0,0,0-2.77-2.9,4.28,4.28,0,0,0-5.6,2.28l0,0a4.28,4.28,0,0,0,2,5.94,5,5,0,0,0,3,.48l.87-1.84-2.86-1.35,1.15-2.46,5.62,2.64-2.64,5.62a9.25,9.25,0,0,1-6.49-.55A7.14,7.14,0,0,1,152.28,382.08Z"/><path class="cls-6" d="M179.63,398.72a6.42,6.42,0,0,1-4.46.42c-2.64-.73-4.2-2.82-3.52-5.26v0a4.13,4.13,0,0,1,3.72-3,4.83,4.83,0,0,1-.2-3v0c.53-1.89,2.52-3.2,5.18-2.47,2.34.65,3.45,2.61,2.91,4.54v0c-.51,1.85-2,2.6-3.89,2.8l1.33,2.33c.64-.58,1.32-1.26,2-2l1.88,1.84a26.14,26.14,0,0,1-2.61,2.41l1.46,2.59-2.65.94Zm1-9.41v0a1.26,1.26,0,0,0-.94-1.64,1.35,1.35,0,0,0-1.73,1v0a2.56,2.56,0,0,0,.33,1.94C179.58,390.51,180.35,390.17,180.59,389.31Zm-2.17,7.21-1.9-3.4a2.14,2.14,0,0,0-1.78,1.45v0a1.78,1.78,0,0,0,1.48,2.15A3.39,3.39,0,0,0,178.42,396.52Z"/><path class="cls-7" d="M326.64,212.92V211.3h1.2c.63,0,1,.26,1,.8v0c0,.48-.37.78-1,.78Zm-1.86,3.48h1.86v-2h.82l1.36,2H331l-1.6-2.33a2.11,2.11,0,0,0,1.37-2.06v0a2.07,2.07,0,0,0-.57-1.53,3.07,3.07,0,0,0-2.27-.75h-3.11Zm2.75,2.47a5.52,5.52,0,0,1-5.55-5.6v0a5.57,5.57,0,1,1,11.13,0v0a5.57,5.57,0,0,1-5.58,5.64m0,.7a6.34,6.34,0,0,0,6.31-6.34v0a6.28,6.28,0,0,0-6.28-6.3,6.34,6.34,0,0,0-6.31,6.33v0a6.29,6.29,0,0,0,6.28,6.3m-26.12,36.09h13.51V207.14H301.41Zm-60.45,0h13.17V227.93l12.34,18.86h.27l12.41-19v27.86h13.38V207.14H278.32l-11.58,18.78-11.57-18.78H241Zm-60.18,0H194V227.93l12.34,18.86h.27l12.41-19v27.86h13.38V207.14H218.15l-11.58,18.78L195,207.14H180.78Zm-27.24,1c10.75,0,16.92-4.64,21.49-10.95l-10.12-7.21C162,242,159,244.36,154,244.36c-6.8,0-11.58-5.68-11.58-13v-.14c0-7.07,4.78-12.82,11.58-12.82,4.64,0,7.83,2.22,10.6,5.68l10.12-7.83c-4.29-6-10.67-10.12-20.58-10.12-14.7,0-25.59,11.09-25.59,25.23v.14a24.64,24.64,0,0,0,25,25.09"/></svg>