<?xml version="1.0" standalone="no"?>
<!DOCTYPE svg PUBLIC "-//W3C//DTD SVG 20010904//EN"
 "http://www.w3.org/TR/2001/REC-SVG-20010904/DTD/svg10.dtd">
<svg version="1.0" xmlns="http://www.w3.org/2000/svg"
 width="512.000000pt" height="512.000000pt" viewBox="0 0 512.000000 512.000000"
 preserveAspectRatio="xMidYMid meet">

<g transform="translate(0.000000,512.000000) scale(0.100000,-0.100000)"
fill="#000000" stroke="none">
<path d="M825 5015 c-25 -24 -25 -24 -25 -240 l0 -215 -215 0 c-216 0 -216 0
-240 -25 l-25 -24 0 -271 0 -271 25 -24 c24 -25 24 -25 240 -25 l215 0 0
-1080 0 -1080 -175 0 c-173 0 -176 0 -200 -25 -14 -13 -25 -35 -25 -47 0 -13
63 -197 140 -408 77 -211 140 -388 140 -392 0 -12 -81 -10 -142 3 -87 18 -174
65 -247 135 -38 35 -73 64 -78 64 -12 0 -103 -93 -103 -106 0 -6 11 -21 25
-34 l25 -23 0 -262 0 -262 -25 -23 c-14 -13 -25 -29 -25 -36 0 -18 125 -130
190 -169 30 -18 91 -46 135 -61 71 -25 94 -28 205 -28 110 0 134 3 204 27 92
32 150 65 224 125 l53 43 47 -39 c71 -60 139 -98 227 -128 71 -25 94 -28 205
-28 110 0 134 3 204 27 92 32 150 65 224 125 l53 43 47 -39 c71 -60 139 -98
227 -128 71 -25 94 -28 205 -28 110 0 134 3 204 27 92 32 150 65 224 125 l53
43 47 -39 c71 -60 139 -98 227 -128 71 -25 94 -28 205 -28 110 0 134 3 204 27
92 32 150 65 224 125 l53 43 47 -39 c71 -60 139 -98 227 -128 71 -25 94 -28
205 -28 111 0 134 3 205 28 44 15 106 44 139 63 65 40 186 149 186 167 0 7
-11 23 -25 36 l-25 23 0 262 0 262 25 23 c14 13 25 28 25 35 0 12 -91 105
-104 105 -5 0 -39 -29 -76 -64 -111 -104 -241 -153 -380 -143 -79 6 -110 13
-110 28 0 5 104 285 230 622 127 338 230 624 230 636 0 12 -11 33 -25 46 l-24
25 -336 0 -335 0 0 135 c0 131 -1 137 -25 160 -20 21 -34 25 -80 25 l-55 0 0
455 0 456 -25 24 c-23 24 -30 25 -145 25 l-122 0 -254 198 -254 197 341 5 341
5 19 24 c18 22 19 42 19 293 0 266 0 269 -23 292 -20 20 -168 51 -1237 264
l-1215 242 -258 0 -258 0 -24 -25z m335 -138 c0 -1 -45 -47 -100 -102 l-100
-100 0 103 0 102 100 0 c55 0 100 -1 100 -3z m1040 -167 l735 -148 -747 -1
-748 -1 0 150 c0 114 3 150 13 150 6 -1 343 -68 747 -150z m-920 -50 l0 -100
-102 0 -103 0 100 100 c55 55 101 100 102 100 2 0 3 -45 3 -100z m-258 -402
l-142 -143 -142 143 -143 142 285 0 285 0 -143 -142z m960 0 l-142 -143 -142
143 -143 142 285 0 285 0 -143 -142z m960 0 l-142 -143 -142 143 -143 142 285
0 285 0 -143 -142z m738 42 c0 -55 -1 -100 -3 -100 -1 0 -47 45 -102 100
l-100 100 103 0 102 0 0 -100z m-2175 -80 l140 -140 -285 0 -285 0 140 140
c77 77 142 140 145 140 3 0 68 -63 145 -140z m960 0 l140 -140 -285 0 -285 0
140 140 c77 77 142 140 145 140 3 0 68 -63 145 -140z m960 0 l140 -140 -285 0
-285 0 140 140 c77 77 142 140 145 140 3 0 68 -63 145 -140z m-2840 -40 l100
-100 -103 0 -102 0 0 100 c0 55 1 100 3 100 1 0 47 -45 102 -100z m575 -263
c0 -1 -45 -47 -100 -102 l-100 -100 0 103 0 102 100 0 c55 0 100 -1 100 -3z
m1469 -10 c-8 -7 -124 -96 -256 -199 l-241 -188 -121 0 c-116 0 -123 -1 -146
-25 l-25 -24 0 -511 0 -511 25 -24 c20 -21 34 -25 80 -25 l55 0 0 -320 0 -320
-280 0 -280 0 0 1080 0 1080 603 0 c475 -1 599 -3 586 -13z m497 -199 l236
-183 -241 -3 c-133 -1 -349 -1 -481 0 l-240 3 232 182 c128 100 239 182 246
182 7 1 119 -81 248 -181z m-1846 -190 l0 -283 -142 142 -143 143 140 140 c77
77 141 140 142 140 2 0 3 -127 3 -282z m2480 -558 l0 -400 -880 0 -880 0 0
400 0 400 880 0 880 0 0 -400z m-2658 -62 l-142 -143 0 285 0 285 142 -143
143 -142 -143 -142z m178 -340 l0 -283 -142 142 -143 143 140 140 c77 77 141
140 142 140 2 0 3 -127 3 -282z m-178 -620 l-142 -143 0 285 0 285 142 -143
143 -142 -143 -142z m2896 -180 l-3 -323 -27 -52 c-35 -66 -85 -116 -151 -151
l-52 -27 -1511 -3 -1511 -2 -68 187 c-37 104 -70 194 -72 200 -4 10 267 13
1318 15 l1324 3 199 238 198 237 180 0 179 0 -3 -322z m-2718 62 l0 -60 -62 0
-62 0 59 60 c33 33 61 60 62 60 2 0 3 -27 3 -60z"/>
<path d="M2160 2960 l0 -240 80 0 80 0 0 240 0 240 -80 0 -80 0 0 -240z"/>
<path d="M2480 2960 l0 -240 80 0 80 0 0 240 0 240 -80 0 -80 0 0 -240z"/>
<path d="M2800 2960 l0 -240 80 0 80 0 0 240 0 240 -80 0 -80 0 0 -240z"/>
<path d="M3120 2960 l0 -240 80 0 80 0 0 240 0 240 -80 0 -80 0 0 -240z"/>
<path d="M3440 2960 l0 -240 80 0 80 0 0 240 0 240 -80 0 -80 0 0 -240z"/>
</g>
</svg>
