<?xml version="1.0" standalone="no"?>
<!DOCTYPE svg PUBLIC "-//W3C//DTD SVG 20010904//EN"
 "http://www.w3.org/TR/2001/REC-SVG-20010904/DTD/svg10.dtd">
<svg version="1.0" xmlns="http://www.w3.org/2000/svg"
 width="512.000000pt" height="512.000000pt" viewBox="0 0 512.000000 512.000000"
 preserveAspectRatio="xMidYMid meet">

<g transform="translate(0.000000,512.000000) scale(0.100000,-0.100000)"
fill="#000000" stroke="none">
<path d="M1810 4660 l0 -460 -300 0 -300 0 0 -450 0 -450 -150 0 -150 0 -2
-572 -3 -571 -180 -60 c-99 -33 -182 -61 -184 -63 -2 -2 143 -249 322 -548
180 -299 327 -547 327 -550 0 -2 -38 13 -84 34 -133 62 -192 74 -346 74 -157
0 -214 -13 -360 -79 -121 -56 -160 -64 -292 -65 l-108 0 0 -450 0 -450 2560 0
2560 0 0 449 0 449 -132 4 c-118 4 -140 7 -198 32 -189 82 -228 95 -309 107
-164 23 -315 -1 -473 -74 -43 -20 -78 -34 -78 -31 0 3 147 251 327 550 179
299 324 546 322 548 -2 2 -85 30 -184 63 l-180 60 -3 571 -2 572 -150 0 -150
0 0 450 0 450 -300 0 -300 0 0 460 0 460 -750 0 -750 0 0 -460z m1200 -150 l0
-310 -450 0 -450 0 0 310 0 310 450 0 450 0 0 -310z m-600 -910 l0 -300 -450
0 -450 0 0 300 0 300 450 0 450 0 0 -300z m1200 0 l0 -300 -450 0 -450 0 0
300 0 300 450 0 450 0 0 -300z m-1202 -772 l-3 -171 -580 -194 c-319 -106
-588 -196 -597 -199 -17 -5 -18 17 -18 365 l0 371 600 0 600 0 -2 -172z m1502
-199 c0 -348 -1 -370 -17 -365 -10 3 -279 93 -598 199 l-580 194 -3 171 -2
172 600 0 600 0 0 -371z m-1500 -998 l0 -710 -93 44 c-140 65 -200 79 -352 79
-149 1 -202 -9 -328 -65 -48 -22 -89 -39 -91 -39 -8 0 -558 921 -553 926 5 5
1396 472 1410 473 4 1 7 -318 7 -708z m1023 470 c383 -128 697 -235 697 -238
0 -7 -550 -923 -554 -923 -2 0 -38 16 -80 35 -125 57 -184 69 -336 69 -157 0
-209 -11 -354 -79 l-96 -44 0 710 c0 565 3 710 13 707 6 -3 326 -110 710 -237z
m-2433 -1413 c165 -73 208 -83 365 -82 155 0 209 13 368 87 l112 52 115 0 115
0 125 -56 c164 -74 207 -84 365 -83 155 0 209 13 368 87 l112 52 115 0 115 0
125 -56 c164 -74 207 -84 365 -83 154 0 208 13 366 86 97 44 122 51 193 55
103 7 167 -7 281 -59 50 -23 117 -49 150 -59 l60 -16 3 -157 3 -156 -2261 0
-2261 0 3 156 3 157 60 16 c33 10 101 36 150 59 119 55 152 62 265 58 91 -3
101 -5 220 -58z"/>
</g>
</svg>
